<svg xmlns="http://www.w3.org/2000/svg" xmlns:xlink="http://www.w3.org/1999/xlink" width="1024" zoomAndPan="magnify" viewBox="0 0 768 767.999994" height="1024" preserveAspectRatio="xMidYMid meet" version="1.0"><defs><clipPath id="2aa36586a2"><path d="M 62.316406 142.738281 L 705.816406 142.738281 L 705.816406 624.988281 L 62.316406 624.988281 Z M 62.316406 142.738281 " clip-rule="nonzero"/></clipPath></defs><g clip-path="url(#2aa36586a2)"><path fill="#545454" d="M 625.292969 142.726562 L 89.152344 142.726562 C 74.351562 142.726562 62.351562 154.726562 62.351562 169.535156 L 62.351562 544.828125 L 102.558594 544.828125 L 102.558594 182.9375 L 625.292969 182.9375 Z M 210.421875 343.777344 C 210.421875 377.085938 237.421875 404.09375 270.738281 404.09375 C 304.058594 404.09375 331.054688 377.085938 331.054688 343.777344 C 331.054688 310.46875 304.058594 283.464844 270.738281 283.464844 C 237.421875 283.464844 210.421875 310.46875 210.421875 343.777344 Z M 665.503906 425.546875 L 585.527344 343.777344 L 454.230469 467.359375 L 383.957031 409.324219 L 182.980469 585.039062 L 182.980469 263.359375 L 665.503906 263.359375 Z M 142.769531 249.953125 L 142.769531 598.441406 C 142.769531 613.25 154.769531 625.25 169.578125 625.25 L 678.90625 625.25 C 693.710938 625.25 705.710938 613.25 705.710938 598.441406 L 705.710938 249.953125 C 705.710938 235.148438 693.710938 223.144531 678.90625 223.144531 L 169.578125 223.144531 C 154.769531 223.144531 142.769531 235.148438 142.769531 249.953125 " fill-opacity="1" fill-rule="nonzero"/></g></svg>